ISO-10303-21;
HEADER;
/* Generated by software containing ST-Developer
 * from STEP Tools, Inc. (www.steptools.com) 
 */

FILE_DESCRIPTION(
/* description */ (''),
/* implementation_level */ '2;1');

FILE_NAME(
/* name */ 'KEYBOARD BOTTOM CASE.step',
/* time_stamp */ '2026-07-30T12:12:42-05:00',
/* author */ (''),
/* organization */ (''),
/* preprocessor_version */ 'ST-DEVELOPER v20.1',
/* originating_system */ 'Autodesk Translation Framework v15.8.0.0',
/* authorisation */ '');

FILE_SCHEMA (('AUTOMOTIVE_DESIGN { 1 0 10303 214 3 1 1 }'));
ENDSEC;

DATA;
#10=MECHANICAL_DESIGN_GEOMETRIC_PRESENTATION_REPRESENTATION('',(#13),#1245);
#11=SHAPE_REPRESENTATION_RELATIONSHIP('SRR','None',#1252,#12);
#12=ADVANCED_BREP_SHAPE_REPRESENTATION('',(#14),#1244);
#13=STYLED_ITEM('',(#1262),#14);
#14=MANIFOLD_SOLID_BREP('Body1',#705);
#15=CYLINDRICAL_SURFACE('',#734,2.00000000000003);
#16=CYLINDRICAL_SURFACE('',#738,2.00000000000003);
#17=CYLINDRICAL_SURFACE('',#742,1.99999999999999);
#18=CYLINDRICAL_SURFACE('',#746,2.);
#19=CYLINDRICAL_SURFACE('',#748,0.5);
#20=CYLINDRICAL_SURFACE('',#751,0.5);
#21=CYLINDRICAL_SURFACE('',#754,0.5);
#22=CYLINDRICAL_SURFACE('',#757,0.5);
#23=CYLINDRICAL_SURFACE('',#768,5.);
#24=CYLINDRICAL_SURFACE('',#775,5.);
#25=CYLINDRICAL_SURFACE('',#777,5.);
#26=CYLINDRICAL_SURFACE('',#778,5.);
#27=CYLINDRICAL_SURFACE('',#779,1.587462);
#28=CYLINDRICAL_SURFACE('',#783,1.58746200000003);
#29=CYLINDRICAL_SURFACE('',#787,1.587462);
#30=CYLINDRICAL_SURFACE('',#791,1.58746200000003);
#31=CYLINDRICAL_SURFACE('',#795,3.);
#32=CYLINDRICAL_SURFACE('',#798,3.00000000000004);
#33=CYLINDRICAL_SURFACE('',#801,3.);
#34=CYLINDRICAL_SURFACE('',#804,2.99999999999997);
#35=FACE_BOUND('',#120,.T.);
#36=FACE_BOUND('',#121,.T.);
#37=FACE_BOUND('',#122,.T.);
#38=FACE_BOUND('',#123,.T.);
#39=FACE_BOUND('',#124,.T.);
#40=FACE_BOUND('',#140,.T.);
#41=FACE_BOUND('',#141,.T.);
#42=FACE_BOUND('',#142,.T.);
#43=FACE_BOUND('',#143,.T.);
#44=FACE_BOUND('',#165,.T.);
#45=FACE_BOUND('',#168,.T.);
#46=FACE_BOUND('',#171,.T.);
#47=FACE_BOUND('',#174,.T.);
#48=PLANE('',#722);
#49=PLANE('',#750);
#50=PLANE('',#753);
#51=PLANE('',#756);
#52=PLANE('',#759);
#53=PLANE('',#764);
#54=PLANE('',#765);
#55=PLANE('',#766);
#56=PLANE('',#767);
#57=PLANE('',#770);
#58=PLANE('',#771);
#59=PLANE('',#776);
#60=PLANE('',#782);
#61=PLANE('',#786);
#62=PLANE('',#790);
#63=PLANE('',#794);
#64=PLANE('',#797);
#65=PLANE('',#800);
#66=PLANE('',#803);
#67=PLANE('',#806);
#68=PLANE('',#807);
#69=PLANE('',#808);
#70=PLANE('',#809);
#71=FACE_OUTER_BOUND('',#118,.T.);
#72=FACE_OUTER_BOUND('',#119,.T.);
#73=FACE_OUTER_BOUND('',#125,.T.);
#74=FACE_OUTER_BOUND('',#126,.T.);
#75=FACE_OUTER_BOUND('',#127,.T.);
#76=FACE_OUTER_BOUND('',#128,.T.);
#77=FACE_OUTER_BOUND('',#129,.T.);
#78=FACE_OUTER_BOUND('',#130,.T.);
#79=FACE_OUTER_BOUND('',#131,.T.);
#80=FACE_OUTER_BOUND('',#132,.T.);
#81=FACE_OUTER_BOUND('',#133,.T.);
#82=FACE_OUTER_BOUND('',#134,.T.);
#83=FACE_OUTER_BOUND('',#135,.T.);
#84=FACE_OUTER_BOUND('',#136,.T.);
#85=FACE_OUTER_BOUND('',#137,.T.);
#86=FACE_OUTER_BOUND('',#138,.T.);
#87=FACE_OUTER_BOUND('',#139,.T.);
#88=FACE_OUTER_BOUND('',#144,.T.);
#89=FACE_OUTER_BOUND('',#145,.T.);
#90=FACE_OUTER_BOUND('',#146,.T.);
#91=FACE_OUTER_BOUND('',#147,.T.);
#92=FACE_OUTER_BOUND('',#148,.T.);
#93=FACE_OUTER_BOUND('',#149,.T.);
#94=FACE_OUTER_BOUND('',#150,.T.);
#95=FACE_OUTER_BOUND('',#151,.T.);
#96=FACE_OUTER_BOUND('',#152,.T.);
#97=FACE_OUTER_BOUND('',#153,.T.);
#98=FACE_OUTER_BOUND('',#154,.T.);
#99=FACE_OUTER_BOUND('',#155,.T.);
#100=FACE_OUTER_BOUND('',#156,.T.);
#101=FACE_OUTER_BOUND('',#157,.T.);
#102=FACE_OUTER_BOUND('',#158,.T.);
#103=FACE_OUTER_BOUND('',#159,.T.);
#104=FACE_OUTER_BOUND('',#160,.T.);
#105=FACE_OUTER_BOUND('',#161,.T.);
#106=FACE_OUTER_BOUND('',#162,.T.);
#107=FACE_OUTER_BOUND('',#163,.T.);
#108=FACE_OUTER_BOUND('',#164,.T.);
#109=FACE_OUTER_BOUND('',#166,.T.);
#110=FACE_OUTER_BOUND('',#167,.T.);
#111=FACE_OUTER_BOUND('',#169,.T.);
#112=FACE_OUTER_BOUND('',#170,.T.);
#113=FACE_OUTER_BOUND('',#172,.T.);
#114=FACE_OUTER_BOUND('',#173,.T.);
#115=FACE_OUTER_BOUND('',#175,.T.);
#116=FACE_OUTER_BOUND('',#176,.T.);
#117=FACE_OUTER_BOUND('',#177,.T.);
#118=EDGE_LOOP('',(#470,#471,#472,#473));
#119=EDGE_LOOP('',(#474,#475,#476,#477,#478,#479,#480,#481));
#120=EDGE_LOOP('',(#482));
#121=EDGE_LOOP('',(#483));
#122=EDGE_LOOP('',(#484,#485,#486,#487,#488,#489,#490,#491));
#123=EDGE_LOOP('',(#492));
#124=EDGE_LOOP('',(#493));
#125=EDGE_LOOP('',(#494,#495,#496,#497));
#126=EDGE_LOOP('',(#498,#499,#500,#501));
#127=EDGE_LOOP('',(#502,#503,#504,#505));
#128=EDGE_LOOP('',(#506,#507,#508,#509));
#129=EDGE_LOOP('',(#510,#511,#512,#513));
#130=EDGE_LOOP('',(#514,#515,#516,#517));
#131=EDGE_LOOP('',(#518,#519,#520,#521));
#132=EDGE_LOOP('',(#522,#523,#524,#525));
#133=EDGE_LOOP('',(#526,#527,#528,#529));
#134=EDGE_LOOP('',(#530,#531,#532,#533));
#135=EDGE_LOOP('',(#534,#535,#536,#537));
#136=EDGE_LOOP('',(#538,#539,#540,#541));
#137=EDGE_LOOP('',(#542,#543,#544,#545));
#138=EDGE_LOOP('',(#546,#547,#548,#549));
#139=EDGE_LOOP('',(#550,#551,#552,#553,#554,#555,#556,#557));
#140=EDGE_LOOP('',(#558));
#141=EDGE_LOOP('',(#559));
#142=EDGE_LOOP('',(#560));
#143=EDGE_LOOP('',(#561));
#144=EDGE_LOOP('',(#562));
#145=EDGE_LOOP('',(#563));
#146=EDGE_LOOP('',(#564));
#147=EDGE_LOOP('',(#565));
#148=EDGE_LOOP('',(#566,#567,#568,#569));
#149=EDGE_LOOP('',(#570,#571,#572,#573));
#150=EDGE_LOOP('',(#574,#575,#576,#577,#578,#579,#580,#581));
#151=EDGE_LOOP('',(#582,#583,#584,#585));
#152=EDGE_LOOP('',(#586,#587,#588,#589));
#153=EDGE_LOOP('',(#590,#591,#592,#593));
#154=EDGE_LOOP('',(#594,#595,#596,#597));
#155=EDGE_LOOP('',(#598,#599,#600,#601));
#156=EDGE_LOOP('',(#602));
#157=EDGE_LOOP('',(#603,#604,#605,#606));
#158=EDGE_LOOP('',(#607));
#159=EDGE_LOOP('',(#608,#609,#610,#611));
#160=EDGE_LOOP('',(#612));
#161=EDGE_LOOP('',(#613,#614,#615,#616));
#162=EDGE_LOOP('',(#617));
#163=EDGE_LOOP('',(#618,#619,#620,#621));
#164=EDGE_LOOP('',(#622));
#165=EDGE_LOOP('',(#623));
#166=EDGE_LOOP('',(#624,#625,#626,#627));
#167=EDGE_LOOP('',(#628));
#168=EDGE_LOOP('',(#629));
#169=EDGE_LOOP('',(#630,#631,#632,#633));
#170=EDGE_LOOP('',(#634));
#171=EDGE_LOOP('',(#635));
#172=EDGE_LOOP('',(#636,#637,#638,#639));
#173=EDGE_LOOP('',(#640));
#174=EDGE_LOOP('',(#641));
#175=EDGE_LOOP('',(#642,#643,#644,#645));
#176=EDGE_LOOP('',(#646,#647,#648,#649));
#177=EDGE_LOOP('',(#650,#651,#652,#653));
#178=LINE('',#1047,#226);
#179=LINE('',#1054,#227);
#180=LINE('',#1058,#228);
#181=LINE('',#1062,#229);
#182=LINE('',#1065,#230);
#183=LINE('',#1072,#231);
#184=LINE('',#1076,#232);
#185=LINE('',#1080,#233);
#186=LINE('',#1084,#234);
#187=LINE('',#1090,#235);
#188=LINE('',#1094,#236);
#189=LINE('',#1098,#237);
#190=LINE('',#1102,#238);
#191=LINE('',#1106,#239);
#192=LINE('',#1110,#240);
#193=LINE('',#1114,#241);
#194=LINE('',#1120,#242);
#195=LINE('',#1121,#243);
#196=LINE('',#1124,#244);
#197=LINE('',#1125,#245);
#198=LINE('',#1129,#246);
#199=LINE('',#1132,#247);
#200=LINE('',#1133,#248);
#201=LINE('',#1137,#249);
#202=LINE('',#1140,#250);
#203=LINE('',#1141,#251);
#204=LINE('',#1145,#252);
#205=LINE('',#1147,#253);
#206=LINE('',#1162,#254);
#207=LINE('',#1165,#255);
#208=LINE('',#1168,#256);
#209=LINE('',#1169,#257);
#210=LINE('',#1172,#258);
#211=LINE('',#1176,#259);
#212=LINE('',#1180,#260);
#213=LINE('',#1183,#261);
#214=LINE('',#1184,#262);
#215=LINE('',#1186,#263);
#216=LINE('',#1188,#264);
#217=LINE('',#1190,#265);
#218=LINE('',#1195,#266);
#219=LINE('',#1202,#267);
#220=LINE('',#1209,#268);
#221=LINE('',#1216,#269);
#222=LINE('',#1222,#270);
#223=LINE('',#1227,#271);
#224=LINE('',#1232,#272);
#225=LINE('',#1237,#273);
#226=VECTOR('',#816,2.25000000000001);
#227=VECTOR('',#823,10.);
#228=VECTOR('',#826,10.);
#229=VECTOR('',#829,10.);
#230=VECTOR('',#832,10.);
#231=VECTOR('',#837,10.);
#232=VECTOR('',#840,10.);
#233=VECTOR('',#843,10.);
#234=VECTOR('',#846,10.);
#235=VECTOR('',#853,2.00000000000003);
#236=VECTOR('',#858,2.25000000000001);
#237=VECTOR('',#863,2.00000000000003);
#238=VECTOR('',#868,2.24999999999999);
#239=VECTOR('',#873,1.99999999999999);
#240=VECTOR('',#878,2.25);
#241=VECTOR('',#883,2.);
#242=VECTOR('',#890,10.);
#243=VECTOR('',#891,10.);
#244=VECTOR('',#894,10.);
#245=VECTOR('',#895,10.);
#246=VECTOR('',#900,10.);
#247=VECTOR('',#903,10.);
#248=VECTOR('',#904,10.);
#249=VECTOR('',#909,10.);
#250=VECTOR('',#912,10.);
#251=VECTOR('',#913,10.);
#252=VECTOR('',#918,10.);
#253=VECTOR('',#921,10.);
#254=VECTOR('',#940,10.);
#255=VECTOR('',#943,10.);
#256=VECTOR('',#946,10.);
#257=VECTOR('',#947,10.);
#258=VECTOR('',#950,10.);
#259=VECTOR('',#953,10.);
#260=VECTOR('',#956,10.);
#261=VECTOR('',#961,10.);
#262=VECTOR('',#962,10.);
#263=VECTOR('',#965,10.);
#264=VECTOR('',#968,10.);
#265=VECTOR('',#971,10.);
#266=VECTOR('',#976,1.587462);
#267=VECTOR('',#985,1.58746200000003);
#268=VECTOR('',#994,1.587462);
#269=VECTOR('',#1003,1.58746200000003);
#270=VECTOR('',#1012,3.);
#271=VECTOR('',#1019,3.00000000000004);
#272=VECTOR('',#1026,3.);
#273=VECTOR('',#1033,2.99999999999997);
#274=CIRCLE('',#720,2.5);
#275=CIRCLE('',#721,2.00000000000003);
#276=CIRCLE('',#723,5.);
#277=CIRCLE('',#724,5.);
#278=CIRCLE('',#725,5.);
#279=CIRCLE('',#726,5.);
#280=CIRCLE('',#727,2.5);
#281=CIRCLE('',#728,2.5);
#282=CIRCLE('',#729,0.5);
#283=CIRCLE('',#730,0.5);
#284=CIRCLE('',#731,0.5);
#285=CIRCLE('',#732,0.5);
#286=CIRCLE('',#733,2.49999999999999);
#287=CIRCLE('',#735,2.00000000000003);
#288=CIRCLE('',#737,2.00000000000003);
#289=CIRCLE('',#739,2.00000000000003);
#290=CIRCLE('',#741,1.99999999999999);
#291=CIRCLE('',#743,1.99999999999999);
#292=CIRCLE('',#745,2.);
#293=CIRCLE('',#747,2.);
#294=CIRCLE('',#749,0.5);
#295=CIRCLE('',#752,0.5);
#296=CIRCLE('',#755,0.5);
#297=CIRCLE('',#758,0.5);
#298=CIRCLE('',#760,2.99999999999997);
#299=CIRCLE('',#761,3.);
#300=CIRCLE('',#762,3.00000000000004);
#301=CIRCLE('',#763,3.);
#302=CIRCLE('',#769,5.);
#303=CIRCLE('',#772,5.);
#304=CIRCLE('',#773,5.);
#305=CIRCLE('',#774,5.);
#306=CIRCLE('',#780,1.587462);
#307=CIRCLE('',#781,1.587462);
#308=CIRCLE('',#784,1.58746200000003);
#309=CIRCLE('',#785,1.58746200000003);
#310=CIRCLE('',#788,1.587462);
#311=CIRCLE('',#789,1.587462);
#312=CIRCLE('',#792,1.58746200000003);
#313=CIRCLE('',#793,1.58746200000003);
#314=CIRCLE('',#796,3.);
#315=CIRCLE('',#799,3.00000000000004);
#316=CIRCLE('',#802,3.);
#317=CIRCLE('',#805,2.99999999999997);
#318=VERTEX_POINT('',#1044);
#319=VERTEX_POINT('',#1046);
#320=VERTEX_POINT('',#1050);
#321=VERTEX_POINT('',#1051);
#322=VERTEX_POINT('',#1053);
#323=VERTEX_POINT('',#1055);
#324=VERTEX_POINT('',#1057);
#325=VERTEX_POINT('',#1059);
#326=VERTEX_POINT('',#1061);
#327=VERTEX_POINT('',#1063);
#328=VERTEX_POINT('',#1066);
#329=VERTEX_POINT('',#1068);
#330=VERTEX_POINT('',#1070);
#331=VERTEX_POINT('',#1071);
#332=VERTEX_POINT('',#1073);
#333=VERTEX_POINT('',#1075);
#334=VERTEX_POINT('',#1077);
#335=VERTEX_POINT('',#1079);
#336=VERTEX_POINT('',#1081);
#337=VERTEX_POINT('',#1083);
#338=VERTEX_POINT('',#1086);
#339=VERTEX_POINT('',#1089);
#340=VERTEX_POINT('',#1093);
#341=VERTEX_POINT('',#1097);
#342=VERTEX_POINT('',#1101);
#343=VERTEX_POINT('',#1105);
#344=VERTEX_POINT('',#1109);
#345=VERTEX_POINT('',#1113);
#346=VERTEX_POINT('',#1117);
#347=VERTEX_POINT('',#1118);
#348=VERTEX_POINT('',#1123);
#349=VERTEX_POINT('',#1127);
#350=VERTEX_POINT('',#1131);
#351=VERTEX_POINT('',#1135);
#352=VERTEX_POINT('',#1139);
#353=VERTEX_POINT('',#1143);
#354=VERTEX_POINT('',#1148);
#355=VERTEX_POINT('',#1150);
#356=VERTEX_POINT('',#1152);
#357=VERTEX_POINT('',#1154);
#358=VERTEX_POINT('',#1161);
#359=VERTEX_POINT('',#1163);
#360=VERTEX_POINT('',#1167);
#361=VERTEX_POINT('',#1171);
#362=VERTEX_POINT('',#1173);
#363=VERTEX_POINT('',#1175);
#364=VERTEX_POINT('',#1177);
#365=VERTEX_POINT('',#1179);
#366=VERTEX_POINT('',#1192);
#367=VERTEX_POINT('',#1194);
#368=VERTEX_POINT('',#1199);
#369=VERTEX_POINT('',#1201);
#370=VERTEX_POINT('',#1206);
#371=VERTEX_POINT('',#1208);
#372=VERTEX_POINT('',#1213);
#373=VERTEX_POINT('',#1215);
#374=VERTEX_POINT('',#1220);
#375=VERTEX_POINT('',#1225);
#376=VERTEX_POINT('',#1230);
#377=VERTEX_POINT('',#1235);
#378=EDGE_CURVE('',#318,#318,#274,.T.);
#379=EDGE_CURVE('',#318,#319,#178,.T.);
#380=EDGE_CURVE('',#319,#319,#275,.T.);
#381=EDGE_CURVE('',#320,#321,#276,.T.);
#382=EDGE_CURVE('',#320,#322,#179,.T.);
#383=EDGE_CURVE('',#323,#322,#277,.T.);
#384=EDGE_CURVE('',#323,#324,#180,.T.);
#385=EDGE_CURVE('',#325,#324,#278,.T.);
#386=EDGE_CURVE('',#325,#326,#181,.T.);
#387=EDGE_CURVE('',#327,#326,#279,.T.);
#388=EDGE_CURVE('',#327,#321,#182,.T.);
#389=EDGE_CURVE('',#328,#328,#280,.T.);
#390=EDGE_CURVE('',#329,#329,#281,.T.);
#391=EDGE_CURVE('',#330,#331,#183,.T.);
#392=EDGE_CURVE('',#332,#331,#282,.T.);
#393=EDGE_CURVE('',#332,#333,#184,.T.);
#394=EDGE_CURVE('',#334,#333,#283,.T.);
#395=EDGE_CURVE('',#334,#335,#185,.T.);
#396=EDGE_CURVE('',#336,#335,#284,.T.);
#397=EDGE_CURVE('',#336,#337,#186,.T.);
#398=EDGE_CURVE('',#330,#337,#285,.T.);
#399=EDGE_CURVE('',#338,#338,#286,.T.);
#400=EDGE_CURVE('',#319,#339,#187,.T.);
#401=EDGE_CURVE('',#339,#339,#287,.T.);
#402=EDGE_CURVE('',#328,#340,#188,.T.);
#403=EDGE_CURVE('',#340,#340,#288,.T.);
#404=EDGE_CURVE('',#340,#341,#189,.T.);
#405=EDGE_CURVE('',#341,#341,#289,.T.);
#406=EDGE_CURVE('',#338,#342,#190,.T.);
#407=EDGE_CURVE('',#342,#342,#290,.T.);
#408=EDGE_CURVE('',#342,#343,#191,.T.);
#409=EDGE_CURVE('',#343,#343,#291,.T.);
#410=EDGE_CURVE('',#329,#344,#192,.T.);
#411=EDGE_CURVE('',#344,#344,#292,.T.);
#412=EDGE_CURVE('',#344,#345,#193,.T.);
#413=EDGE_CURVE('',#345,#345,#293,.T.);
#414=EDGE_CURVE('',#346,#347,#294,.T.);
#415=EDGE_CURVE('',#346,#334,#194,.T.);
#416=EDGE_CURVE('',#333,#347,#195,.T.);
#417=EDGE_CURVE('',#348,#346,#196,.T.);
#418=EDGE_CURVE('',#335,#348,#197,.T.);
#419=EDGE_CURVE('',#349,#348,#295,.T.);
#420=EDGE_CURVE('',#349,#336,#198,.T.);
#421=EDGE_CURVE('',#350,#349,#199,.T.);
#422=EDGE_CURVE('',#337,#350,#200,.T.);
#423=EDGE_CURVE('',#351,#350,#296,.T.);
#424=EDGE_CURVE('',#351,#330,#201,.T.);
#425=EDGE_CURVE('',#352,#351,#202,.T.);
#426=EDGE_CURVE('',#331,#352,#203,.T.);
#427=EDGE_CURVE('',#353,#352,#297,.T.);
#428=EDGE_CURVE('',#353,#332,#204,.T.);
#429=EDGE_CURVE('',#347,#353,#205,.T.);
#430=EDGE_CURVE('',#354,#354,#298,.T.);
#431=EDGE_CURVE('',#355,#355,#299,.T.);
#432=EDGE_CURVE('',#356,#356,#300,.T.);
#433=EDGE_CURVE('',#357,#357,#301,.T.);
#434=EDGE_CURVE('',#321,#358,#206,.T.);
#435=EDGE_CURVE('',#358,#359,#302,.T.);
#436=EDGE_CURVE('',#359,#320,#207,.T.);
#437=EDGE_CURVE('',#360,#359,#208,.T.);
#438=EDGE_CURVE('',#322,#360,#209,.T.);
#439=EDGE_CURVE('',#358,#361,#210,.T.);
#440=EDGE_CURVE('',#362,#361,#303,.T.);
#441=EDGE_CURVE('',#362,#363,#211,.T.);
#442=EDGE_CURVE('',#364,#363,#304,.T.);
#443=EDGE_CURVE('',#364,#365,#212,.T.);
#444=EDGE_CURVE('',#360,#365,#305,.T.);
#445=EDGE_CURVE('',#326,#362,#213,.T.);
#446=EDGE_CURVE('',#361,#327,#214,.T.);
#447=EDGE_CURVE('',#363,#325,#215,.T.);
#448=EDGE_CURVE('',#324,#364,#216,.T.);
#449=EDGE_CURVE('',#365,#323,#217,.T.);
#450=EDGE_CURVE('',#366,#366,#306,.T.);
#451=EDGE_CURVE('',#366,#367,#218,.T.);
#452=EDGE_CURVE('',#367,#367,#307,.T.);
#453=EDGE_CURVE('',#368,#368,#308,.T.);
#454=EDGE_CURVE('',#368,#369,#219,.T.);
#455=EDGE_CURVE('',#369,#369,#309,.T.);
#456=EDGE_CURVE('',#370,#370,#310,.T.);
#457=EDGE_CURVE('',#370,#371,#220,.T.);
#458=EDGE_CURVE('',#371,#371,#311,.T.);
#459=EDGE_CURVE('',#372,#372,#312,.T.);
#460=EDGE_CURVE('',#372,#373,#221,.T.);
#461=EDGE_CURVE('',#373,#373,#313,.T.);
#462=EDGE_CURVE('',#374,#374,#314,.T.);
#463=EDGE_CURVE('',#374,#357,#222,.T.);
#464=EDGE_CURVE('',#375,#375,#315,.T.);
#465=EDGE_CURVE('',#375,#356,#223,.T.);
#466=EDGE_CURVE('',#376,#376,#316,.T.);
#467=EDGE_CURVE('',#376,#355,#224,.T.);
#468=EDGE_CURVE('',#377,#377,#317,.T.);
#469=EDGE_CURVE('',#377,#354,#225,.T.);
#470=ORIENTED_EDGE('',*,*,#378,.T.);
#471=ORIENTED_EDGE('',*,*,#379,.T.);
#472=ORIENTED_EDGE('',*,*,#380,.T.);
#473=ORIENTED_EDGE('',*,*,#379,.F.);
#474=ORIENTED_EDGE('',*,*,#381,.F.);
#475=ORIENTED_EDGE('',*,*,#382,.T.);
#476=ORIENTED_EDGE('',*,*,#383,.F.);
#477=ORIENTED_EDGE('',*,*,#384,.T.);
#478=ORIENTED_EDGE('',*,*,#385,.F.);
#479=ORIENTED_EDGE('',*,*,#386,.T.);
#480=ORIENTED_EDGE('',*,*,#387,.F.);
#481=ORIENTED_EDGE('',*,*,#388,.T.);
#482=ORIENTED_EDGE('',*,*,#389,.F.);
#483=ORIENTED_EDGE('',*,*,#390,.F.);
#484=ORIENTED_EDGE('',*,*,#391,.T.);
#485=ORIENTED_EDGE('',*,*,#392,.F.);
#486=ORIENTED_EDGE('',*,*,#393,.T.);
#487=ORIENTED_EDGE('',*,*,#394,.F.);
#488=ORIENTED_EDGE('',*,*,#395,.T.);
#489=ORIENTED_EDGE('',*,*,#396,.F.);
#490=ORIENTED_EDGE('',*,*,#397,.T.);
#491=ORIENTED_EDGE('',*,*,#398,.F.);
#492=ORIENTED_EDGE('',*,*,#399,.F.);
#493=ORIENTED_EDGE('',*,*,#378,.F.);
#494=ORIENTED_EDGE('',*,*,#380,.F.);
#495=ORIENTED_EDGE('',*,*,#400,.T.);
#496=ORIENTED_EDGE('',*,*,#401,.T.);
#497=ORIENTED_EDGE('',*,*,#400,.F.);
#498=ORIENTED_EDGE('',*,*,#389,.T.);
#499=ORIENTED_EDGE('',*,*,#402,.T.);
#500=ORIENTED_EDGE('',*,*,#403,.T.);
#501=ORIENTED_EDGE('',*,*,#402,.F.);
#502=ORIENTED_EDGE('',*,*,#403,.F.);
#503=ORIENTED_EDGE('',*,*,#404,.T.);
#504=ORIENTED_EDGE('',*,*,#405,.T.);
#505=ORIENTED_EDGE('',*,*,#404,.F.);
#506=ORIENTED_EDGE('',*,*,#399,.T.);
#507=ORIENTED_EDGE('',*,*,#406,.T.);
#508=ORIENTED_EDGE('',*,*,#407,.T.);
#509=ORIENTED_EDGE('',*,*,#406,.F.);
#510=ORIENTED_EDGE('',*,*,#407,.F.);
#511=ORIENTED_EDGE('',*,*,#408,.T.);
#512=ORIENTED_EDGE('',*,*,#409,.T.);
#513=ORIENTED_EDGE('',*,*,#408,.F.);
#514=ORIENTED_EDGE('',*,*,#390,.T.);
#515=ORIENTED_EDGE('',*,*,#410,.T.);
#516=ORIENTED_EDGE('',*,*,#411,.T.);
#517=ORIENTED_EDGE('',*,*,#410,.F.);
#518=ORIENTED_EDGE('',*,*,#411,.F.);
#519=ORIENTED_EDGE('',*,*,#412,.T.);
#520=ORIENTED_EDGE('',*,*,#413,.T.);
#521=ORIENTED_EDGE('',*,*,#412,.F.);
#522=ORIENTED_EDGE('',*,*,#414,.F.);
#523=ORIENTED_EDGE('',*,*,#415,.T.);
#524=ORIENTED_EDGE('',*,*,#394,.T.);
#525=ORIENTED_EDGE('',*,*,#416,.T.);
#526=ORIENTED_EDGE('',*,*,#415,.F.);
#527=ORIENTED_EDGE('',*,*,#417,.F.);
#528=ORIENTED_EDGE('',*,*,#418,.F.);
#529=ORIENTED_EDGE('',*,*,#395,.F.);
#530=ORIENTED_EDGE('',*,*,#419,.F.);
#531=ORIENTED_EDGE('',*,*,#420,.T.);
#532=ORIENTED_EDGE('',*,*,#396,.T.);
#533=ORIENTED_EDGE('',*,*,#418,.T.);
#534=ORIENTED_EDGE('',*,*,#420,.F.);
#535=ORIENTED_EDGE('',*,*,#421,.F.);
#536=ORIENTED_EDGE('',*,*,#422,.F.);
#537=ORIENTED_EDGE('',*,*,#397,.F.);
#538=ORIENTED_EDGE('',*,*,#423,.F.);
#539=ORIENTED_EDGE('',*,*,#424,.T.);
#540=ORIENTED_EDGE('',*,*,#398,.T.);
#541=ORIENTED_EDGE('',*,*,#422,.T.);
#542=ORIENTED_EDGE('',*,*,#424,.F.);
#543=ORIENTED_EDGE('',*,*,#425,.F.);
#544=ORIENTED_EDGE('',*,*,#426,.F.);
#545=ORIENTED_EDGE('',*,*,#391,.F.);
#546=ORIENTED_EDGE('',*,*,#427,.F.);
#547=ORIENTED_EDGE('',*,*,#428,.T.);
#548=ORIENTED_EDGE('',*,*,#392,.T.);
#549=ORIENTED_EDGE('',*,*,#426,.T.);
#550=ORIENTED_EDGE('',*,*,#414,.T.);
#551=ORIENTED_EDGE('',*,*,#429,.T.);
#552=ORIENTED_EDGE('',*,*,#427,.T.);
#553=ORIENTED_EDGE('',*,*,#425,.T.);
#554=ORIENTED_EDGE('',*,*,#423,.T.);
#555=ORIENTED_EDGE('',*,*,#421,.T.);
#556=ORIENTED_EDGE('',*,*,#419,.T.);
#557=ORIENTED_EDGE('',*,*,#417,.T.);
#558=ORIENTED_EDGE('',*,*,#430,.T.);
#559=ORIENTED_EDGE('',*,*,#431,.T.);
#560=ORIENTED_EDGE('',*,*,#432,.T.);
#561=ORIENTED_EDGE('',*,*,#433,.T.);
#562=ORIENTED_EDGE('',*,*,#409,.F.);
#563=ORIENTED_EDGE('',*,*,#401,.F.);
#564=ORIENTED_EDGE('',*,*,#413,.F.);
#565=ORIENTED_EDGE('',*,*,#405,.F.);
#566=ORIENTED_EDGE('',*,*,#381,.T.);
#567=ORIENTED_EDGE('',*,*,#434,.T.);
#568=ORIENTED_EDGE('',*,*,#435,.T.);
#569=ORIENTED_EDGE('',*,*,#436,.T.);
#570=ORIENTED_EDGE('',*,*,#436,.F.);
#571=ORIENTED_EDGE('',*,*,#437,.F.);
#572=ORIENTED_EDGE('',*,*,#438,.F.);
#573=ORIENTED_EDGE('',*,*,#382,.F.);
#574=ORIENTED_EDGE('',*,*,#435,.F.);
#575=ORIENTED_EDGE('',*,*,#439,.T.);
#576=ORIENTED_EDGE('',*,*,#440,.F.);
#577=ORIENTED_EDGE('',*,*,#441,.T.);
#578=ORIENTED_EDGE('',*,*,#442,.F.);
#579=ORIENTED_EDGE('',*,*,#443,.T.);
#580=ORIENTED_EDGE('',*,*,#444,.F.);
#581=ORIENTED_EDGE('',*,*,#437,.T.);
#582=ORIENTED_EDGE('',*,*,#387,.T.);
#583=ORIENTED_EDGE('',*,*,#445,.T.);
#584=ORIENTED_EDGE('',*,*,#440,.T.);
#585=ORIENTED_EDGE('',*,*,#446,.T.);
#586=ORIENTED_EDGE('',*,*,#445,.F.);
#587=ORIENTED_EDGE('',*,*,#386,.F.);
#588=ORIENTED_EDGE('',*,*,#447,.F.);
#589=ORIENTED_EDGE('',*,*,#441,.F.);
#590=ORIENTED_EDGE('',*,*,#385,.T.);
#591=ORIENTED_EDGE('',*,*,#448,.T.);
#592=ORIENTED_EDGE('',*,*,#442,.T.);
#593=ORIENTED_EDGE('',*,*,#447,.T.);
#594=ORIENTED_EDGE('',*,*,#383,.T.);
#595=ORIENTED_EDGE('',*,*,#438,.T.);
#596=ORIENTED_EDGE('',*,*,#444,.T.);
#597=ORIENTED_EDGE('',*,*,#449,.T.);
#598=ORIENTED_EDGE('',*,*,#450,.F.);
#599=ORIENTED_EDGE('',*,*,#451,.T.);
#600=ORIENTED_EDGE('',*,*,#452,.F.);
#601=ORIENTED_EDGE('',*,*,#451,.F.);
#602=ORIENTED_EDGE('',*,*,#450,.T.);
#603=ORIENTED_EDGE('',*,*,#453,.F.);
#604=ORIENTED_EDGE('',*,*,#454,.T.);
#605=ORIENTED_EDGE('',*,*,#455,.F.);
#606=ORIENTED_EDGE('',*,*,#454,.F.);
#607=ORIENTED_EDGE('',*,*,#453,.T.);
#608=ORIENTED_EDGE('',*,*,#456,.F.);
#609=ORIENTED_EDGE('',*,*,#457,.T.);
#610=ORIENTED_EDGE('',*,*,#458,.F.);
#611=ORIENTED_EDGE('',*,*,#457,.F.);
#612=ORIENTED_EDGE('',*,*,#456,.T.);
#613=ORIENTED_EDGE('',*,*,#459,.F.);
#614=ORIENTED_EDGE('',*,*,#460,.T.);
#615=ORIENTED_EDGE('',*,*,#461,.F.);
#616=ORIENTED_EDGE('',*,*,#460,.F.);
#617=ORIENTED_EDGE('',*,*,#459,.T.);
#618=ORIENTED_EDGE('',*,*,#462,.F.);
#619=ORIENTED_EDGE('',*,*,#463,.T.);
#620=ORIENTED_EDGE('',*,*,#433,.F.);
#621=ORIENTED_EDGE('',*,*,#463,.F.);
#622=ORIENTED_EDGE('',*,*,#462,.T.);
#623=ORIENTED_EDGE('',*,*,#452,.T.);
#624=ORIENTED_EDGE('',*,*,#464,.F.);
#625=ORIENTED_EDGE('',*,*,#465,.T.);
#626=ORIENTED_EDGE('',*,*,#432,.F.);
#627=ORIENTED_EDGE('',*,*,#465,.F.);
#628=ORIENTED_EDGE('',*,*,#464,.T.);
#629=ORIENTED_EDGE('',*,*,#455,.T.);
#630=ORIENTED_EDGE('',*,*,#466,.F.);
#631=ORIENTED_EDGE('',*,*,#467,.T.);
#632=ORIENTED_EDGE('',*,*,#431,.F.);
#633=ORIENTED_EDGE('',*,*,#467,.F.);
#634=ORIENTED_EDGE('',*,*,#466,.T.);
#635=ORIENTED_EDGE('',*,*,#458,.T.);
#636=ORIENTED_EDGE('',*,*,#468,.F.);
#637=ORIENTED_EDGE('',*,*,#469,.T.);
#638=ORIENTED_EDGE('',*,*,#430,.F.);
#639=ORIENTED_EDGE('',*,*,#469,.F.);
#640=ORIENTED_EDGE('',*,*,#468,.T.);
#641=ORIENTED_EDGE('',*,*,#461,.T.);
#642=ORIENTED_EDGE('',*,*,#416,.F.);
#643=ORIENTED_EDGE('',*,*,#393,.F.);
#644=ORIENTED_EDGE('',*,*,#428,.F.);
#645=ORIENTED_EDGE('',*,*,#429,.F.);
#646=ORIENTED_EDGE('',*,*,#434,.F.);
#647=ORIENTED_EDGE('',*,*,#388,.F.);
#648=ORIENTED_EDGE('',*,*,#446,.F.);
#649=ORIENTED_EDGE('',*,*,#439,.F.);
#650=ORIENTED_EDGE('',*,*,#448,.F.);
#651=ORIENTED_EDGE('',*,*,#384,.F.);
#652=ORIENTED_EDGE('',*,*,#449,.F.);
#653=ORIENTED_EDGE('',*,*,#443,.F.);
#654=CONICAL_SURFACE('',#719,2.25000000000001,0.785398163397422);
#655=CONICAL_SURFACE('',#736,2.25000000000001,0.785398163397422);
#656=CONICAL_SURFACE('',#740,2.24999999999999,0.78539816339745);
#657=CONICAL_SURFACE('',#744,2.25,0.78539816339745);
#658=ADVANCED_FACE('',(#71),#654,.F.);
#659=ADVANCED_FACE('',(#72,#35,#36,#37,#38,#39),#48,.T.);
#660=ADVANCED_FACE('',(#73),#15,.F.);
#661=ADVANCED_FACE('',(#74),#655,.F.);
#662=ADVANCED_FACE('',(#75),#16,.F.);
#663=ADVANCED_FACE('',(#76),#656,.F.);
#664=ADVANCED_FACE('',(#77),#17,.F.);
#665=ADVANCED_FACE('',(#78),#657,.F.);
#666=ADVANCED_FACE('',(#79),#18,.F.);
#667=ADVANCED_FACE('',(#80),#19,.F.);
#668=ADVANCED_FACE('',(#81),#49,.T.);
#669=ADVANCED_FACE('',(#82),#20,.F.);
#670=ADVANCED_FACE('',(#83),#50,.T.);
#671=ADVANCED_FACE('',(#84),#21,.F.);
#672=ADVANCED_FACE('',(#85),#51,.T.);
#673=ADVANCED_FACE('',(#86),#22,.F.);
#674=ADVANCED_FACE('',(#87,#40,#41,#42,#43),#52,.T.);
#675=ADVANCED_FACE('',(#88),#53,.T.);
#676=ADVANCED_FACE('',(#89),#54,.T.);
#677=ADVANCED_FACE('',(#90),#55,.T.);
#678=ADVANCED_FACE('',(#91),#56,.T.);
#679=ADVANCED_FACE('',(#92),#23,.T.);
#680=ADVANCED_FACE('',(#93),#57,.T.);
#681=ADVANCED_FACE('',(#94),#58,.F.);
#682=ADVANCED_FACE('',(#95),#24,.T.);
#683=ADVANCED_FACE('',(#96),#59,.T.);
#684=ADVANCED_FACE('',(#97),#25,.T.);
#685=ADVANCED_FACE('',(#98),#26,.T.);
#686=ADVANCED_FACE('',(#99),#27,.F.);
#687=ADVANCED_FACE('',(#100),#60,.T.);
#688=ADVANCED_FACE('',(#101),#28,.F.);
#689=ADVANCED_FACE('',(#102),#61,.T.);
#690=ADVANCED_FACE('',(#103),#29,.F.);
#691=ADVANCED_FACE('',(#104),#62,.T.);
#692=ADVANCED_FACE('',(#105),#30,.F.);
#693=ADVANCED_FACE('',(#106),#63,.T.);
#694=ADVANCED_FACE('',(#107),#31,.T.);
#695=ADVANCED_FACE('',(#108,#44),#64,.T.);
#696=ADVANCED_FACE('',(#109),#32,.T.);
#697=ADVANCED_FACE('',(#110,#45),#65,.T.);
#698=ADVANCED_FACE('',(#111),#33,.T.);
#699=ADVANCED_FACE('',(#112,#46),#66,.T.);
#700=ADVANCED_FACE('',(#113),#34,.T.);
#701=ADVANCED_FACE('',(#114,#47),#67,.T.);
#702=ADVANCED_FACE('',(#115),#68,.T.);
#703=ADVANCED_FACE('',(#116),#69,.T.);
#704=ADVANCED_FACE('',(#117),#70,.T.);
#705=CLOSED_SHELL('',(#658,#659,#660,#661,#662,#663,#664,#665,#666,#667,
#668,#669,#670,#671,#672,#673,#674,#675,#676,#677,#678,#679,#680,#681,#682,
#683,#684,#685,#686,#687,#688,#689,#690,#691,#692,#693,#694,#695,#696,#697,
#698,#699,#700,#701,#702,#703,#704));
#706=DERIVED_UNIT_ELEMENT(#708,1.);
#707=DERIVED_UNIT_ELEMENT(#1247,-3.);
#708=(
MASS_UNIT()
NAMED_UNIT(*)
SI_UNIT(.KILO.,.GRAM.)
);
#709=DERIVED_UNIT((#706,#707));
#710=MEASURE_REPRESENTATION_ITEM('density measure',
POSITIVE_RATIO_MEASURE(7850.),#709);
#711=PROPERTY_DEFINITION_REPRESENTATION(#716,#713);
#712=PROPERTY_DEFINITION_REPRESENTATION(#717,#714);
#713=REPRESENTATION('material name',(#715),#1244);
#714=REPRESENTATION('density',(#710),#1244);
#715=DESCRIPTIVE_REPRESENTATION_ITEM('Steel','Steel');
#716=PROPERTY_DEFINITION('material property','material name',#1254);
#717=PROPERTY_DEFINITION('material property','density of part',#1254);
#718=AXIS2_PLACEMENT_3D('',#1042,#810,#811);
#719=AXIS2_PLACEMENT_3D('',#1043,#812,#813);
#720=AXIS2_PLACEMENT_3D('',#1045,#814,#815);
#721=AXIS2_PLACEMENT_3D('',#1048,#817,#818);
#722=AXIS2_PLACEMENT_3D('',#1049,#819,#820);
#723=AXIS2_PLACEMENT_3D('',#1052,#821,#822);
#724=AXIS2_PLACEMENT_3D('',#1056,#824,#825);
#725=AXIS2_PLACEMENT_3D('',#1060,#827,#828);
#726=AXIS2_PLACEMENT_3D('',#1064,#830,#831);
#727=AXIS2_PLACEMENT_3D('',#1067,#833,#834);
#728=AXIS2_PLACEMENT_3D('',#1069,#835,#836);
#729=AXIS2_PLACEMENT_3D('',#1074,#838,#839);
#730=AXIS2_PLACEMENT_3D('',#1078,#841,#842);
#731=AXIS2_PLACEMENT_3D('',#1082,#844,#845);
#732=AXIS2_PLACEMENT_3D('',#1085,#847,#848);
#733=AXIS2_PLACEMENT_3D('',#1087,#849,#850);
#734=AXIS2_PLACEMENT_3D('',#1088,#851,#852);
#735=AXIS2_PLACEMENT_3D('',#1091,#854,#855);
#736=AXIS2_PLACEMENT_3D('',#1092,#856,#857);
#737=AXIS2_PLACEMENT_3D('',#1095,#859,#860);
#738=AXIS2_PLACEMENT_3D('',#1096,#861,#862);
#739=AXIS2_PLACEMENT_3D('',#1099,#864,#865);
#740=AXIS2_PLACEMENT_3D('',#1100,#866,#867);
#741=AXIS2_PLACEMENT_3D('',#1103,#869,#870);
#742=AXIS2_PLACEMENT_3D('',#1104,#871,#872);
#743=AXIS2_PLACEMENT_3D('',#1107,#874,#875);
#744=AXIS2_PLACEMENT_3D('',#1108,#876,#877);
#745=AXIS2_PLACEMENT_3D('',#1111,#879,#880);
#746=AXIS2_PLACEMENT_3D('',#1112,#881,#882);
#747=AXIS2_PLACEMENT_3D('',#1115,#884,#885);
#748=AXIS2_PLACEMENT_3D('',#1116,#886,#887);
#749=AXIS2_PLACEMENT_3D('',#1119,#888,#889);
#750=AXIS2_PLACEMENT_3D('',#1122,#892,#893);
#751=AXIS2_PLACEMENT_3D('',#1126,#896,#897);
#752=AXIS2_PLACEMENT_3D('',#1128,#898,#899);
#753=AXIS2_PLACEMENT_3D('',#1130,#901,#902);
#754=AXIS2_PLACEMENT_3D('',#1134,#905,#906);
#755=AXIS2_PLACEMENT_3D('',#1136,#907,#908);
#756=AXIS2_PLACEMENT_3D('',#1138,#910,#911);
#757=AXIS2_PLACEMENT_3D('',#1142,#914,#915);
#758=AXIS2_PLACEMENT_3D('',#1144,#916,#917);
#759=AXIS2_PLACEMENT_3D('',#1146,#919,#920);
#760=AXIS2_PLACEMENT_3D('',#1149,#922,#923);
#761=AXIS2_PLACEMENT_3D('',#1151,#924,#925);
#762=AXIS2_PLACEMENT_3D('',#1153,#926,#927);
#763=AXIS2_PLACEMENT_3D('',#1155,#928,#929);
#764=AXIS2_PLACEMENT_3D('',#1156,#930,#931);
#765=AXIS2_PLACEMENT_3D('',#1157,#932,#933);
#766=AXIS2_PLACEMENT_3D('',#1158,#934,#935);
#767=AXIS2_PLACEMENT_3D('',#1159,#936,#937);
#768=AXIS2_PLACEMENT_3D('',#1160,#938,#939);
#769=AXIS2_PLACEMENT_3D('',#1164,#941,#942);
#770=AXIS2_PLACEMENT_3D('',#1166,#944,#945);
#771=AXIS2_PLACEMENT_3D('',#1170,#948,#949);
#772=AXIS2_PLACEMENT_3D('',#1174,#951,#952);
#773=AXIS2_PLACEMENT_3D('',#1178,#954,#955);
#774=AXIS2_PLACEMENT_3D('',#1181,#957,#958);
#775=AXIS2_PLACEMENT_3D('',#1182,#959,#960);
#776=AXIS2_PLACEMENT_3D('',#1185,#963,#964);
#777=AXIS2_PLACEMENT_3D('',#1187,#966,#967);
#778=AXIS2_PLACEMENT_3D('',#1189,#969,#970);
#779=AXIS2_PLACEMENT_3D('',#1191,#972,#973);
#780=AXIS2_PLACEMENT_3D('',#1193,#974,#975);
#781=AXIS2_PLACEMENT_3D('',#1196,#977,#978);
#782=AXIS2_PLACEMENT_3D('',#1197,#979,#980);
#783=AXIS2_PLACEMENT_3D('',#1198,#981,#982);
#784=AXIS2_PLACEMENT_3D('',#1200,#983,#984);
#785=AXIS2_PLACEMENT_3D('',#1203,#986,#987);
#786=AXIS2_PLACEMENT_3D('',#1204,#988,#989);
#787=AXIS2_PLACEMENT_3D('',#1205,#990,#991);
#788=AXIS2_PLACEMENT_3D('',#1207,#992,#993);
#789=AXIS2_PLACEMENT_3D('',#1210,#995,#996);
#790=AXIS2_PLACEMENT_3D('',#1211,#997,#998);
#791=AXIS2_PLACEMENT_3D('',#1212,#999,#1000);
#792=AXIS2_PLACEMENT_3D('',#1214,#1001,#1002);
#793=AXIS2_PLACEMENT_3D('',#1217,#1004,#1005);
#794=AXIS2_PLACEMENT_3D('',#1218,#1006,#1007);
#795=AXIS2_PLACEMENT_3D('',#1219,#1008,#1009);
#796=AXIS2_PLACEMENT_3D('',#1221,#1010,#1011);
#797=AXIS2_PLACEMENT_3D('',#1223,#1013,#1014);
#798=AXIS2_PLACEMENT_3D('',#1224,#1015,#1016);
#799=AXIS2_PLACEMENT_3D('',#1226,#1017,#1018);
#800=AXIS2_PLACEMENT_3D('',#1228,#1020,#1021);
#801=AXIS2_PLACEMENT_3D('',#1229,#1022,#1023);
#802=AXIS2_PLACEMENT_3D('',#1231,#1024,#1025);
#803=AXIS2_PLACEMENT_3D('',#1233,#1027,#1028);
#804=AXIS2_PLACEMENT_3D('',#1234,#1029,#1030);
#805=AXIS2_PLACEMENT_3D('',#1236,#1031,#1032);
#806=AXIS2_PLACEMENT_3D('',#1238,#1034,#1035);
#807=AXIS2_PLACEMENT_3D('',#1239,#1036,#1037);
#808=AXIS2_PLACEMENT_3D('',#1240,#1038,#1039);
#809=AXIS2_PLACEMENT_3D('',#1241,#1040,#1041);
#810=DIRECTION('axis',(0.,0.,1.));
#811=DIRECTION('refdir',(1.,0.,0.));
#812=DIRECTION('center_axis',(0.,0.,1.));
#813=DIRECTION('ref_axis',(1.,0.,0.));
#814=DIRECTION('center_axis',(0.,0.,1.));
#815=DIRECTION('ref_axis',(1.,0.,0.));
#816=DIRECTION('',(0.707106781186529,8.6595605623547E-17,-0.707106781186566));
#817=DIRECTION('center_axis',(0.,0.,-1.));
#818=DIRECTION('ref_axis',(1.,0.,0.));
#819=DIRECTION('center_axis',(0.,0.,1.));
#820=DIRECTION('ref_axis',(1.,0.,0.));
#821=DIRECTION('center_axis',(0.,0.,-1.));
#822=DIRECTION('ref_axis',(-0.707106781186547,-0.707106781186547,0.));
#823=DIRECTION('',(1.,0.,0.));
#824=DIRECTION('center_axis',(0.,0.,-1.));
#825=DIRECTION('ref_axis',(0.707106781186547,-0.707106781186547,0.));
#826=DIRECTION('',(0.,1.,0.));
#827=DIRECTION('center_axis',(0.,0.,-1.));
#828=DIRECTION('ref_axis',(0.707106781186547,0.707106781186547,0.));
#829=DIRECTION('',(-1.,0.,0.));
#830=DIRECTION('center_axis',(0.,0.,-1.));
#831=DIRECTION('ref_axis',(-0.707106781186547,0.707106781186547,0.));
#832=DIRECTION('',(0.,-1.,0.));
#833=DIRECTION('center_axis',(0.,0.,1.));
#834=DIRECTION('ref_axis',(1.,0.,0.));
#835=DIRECTION('center_axis',(0.,0.,1.));
#836=DIRECTION('ref_axis',(1.,0.,0.));
#837=DIRECTION('',(4.62223186652937E-34,1.,0.));
#838=DIRECTION('center_axis',(0.,0.,1.));
#839=DIRECTION('ref_axis',(-0.707106781186543,0.707106781186553,0.));
#840=DIRECTION('',(1.,0.,0.));
#841=DIRECTION('center_axis',(0.,0.,1.));
#842=DIRECTION('ref_axis',(0.707106781186522,0.707106781186573,0.));
#843=DIRECTION('',(0.,-1.,0.));
#844=DIRECTION('center_axis',(0.,0.,1.));
#845=DIRECTION('ref_axis',(0.707106781186529,-0.707106781186566,0.));
#846=DIRECTION('',(-1.,3.53157996423078E-33,0.));
#847=DIRECTION('center_axis',(0.,0.,1.));
#848=DIRECTION('ref_axis',(-0.707106781186553,-0.707106781186543,0.));
#849=DIRECTION('center_axis',(0.,0.,1.));
#850=DIRECTION('ref_axis',(1.,0.,0.));
#851=DIRECTION('center_axis',(0.,0.,-1.));
#852=DIRECTION('ref_axis',(1.,0.,0.));
#853=DIRECTION('',(0.,0.,-1.));
#854=DIRECTION('center_axis',(0.,0.,-1.));
#855=DIRECTION('ref_axis',(1.,0.,0.));
#856=DIRECTION('center_axis',(0.,0.,1.));
#857=DIRECTION('ref_axis',(1.,0.,0.));
#858=DIRECTION('',(0.707106781186529,8.6595605623547E-17,-0.707106781186566));
#859=DIRECTION('center_axis',(0.,0.,-1.));
#860=DIRECTION('ref_axis',(1.,0.,0.));
#861=DIRECTION('center_axis',(0.,0.,-1.));
#862=DIRECTION('ref_axis',(1.,0.,0.));
#863=DIRECTION('',(0.,0.,-1.));
#864=DIRECTION('center_axis',(0.,0.,-1.));
#865=DIRECTION('ref_axis',(1.,0.,0.));
#866=DIRECTION('center_axis',(0.,0.,1.));
#867=DIRECTION('ref_axis',(1.,0.,0.));
#868=DIRECTION('',(0.707106781186549,8.65956056235495E-17,-0.707106781186546));
#869=DIRECTION('center_axis',(0.,0.,-1.));
#870=DIRECTION('ref_axis',(1.,0.,0.));
#871=DIRECTION('center_axis',(0.,0.,-1.));
#872=DIRECTION('ref_axis',(1.,0.,0.));
#873=DIRECTION('',(0.,0.,-1.));
#874=DIRECTION('center_axis',(0.,0.,-1.));
#875=DIRECTION('ref_axis',(1.,0.,0.));
#876=DIRECTION('center_axis',(0.,0.,1.));
#877=DIRECTION('ref_axis',(1.,0.,0.));
#878=DIRECTION('',(0.707106781186549,8.65956056235495E-17,-0.707106781186546));
#879=DIRECTION('center_axis',(0.,0.,-1.));
#880=DIRECTION('ref_axis',(1.,0.,0.));
#881=DIRECTION('center_axis',(0.,0.,-1.));
#882=DIRECTION('ref_axis',(1.,0.,0.));
#883=DIRECTION('',(0.,0.,-1.));
#884=DIRECTION('center_axis',(0.,0.,-1.));
#885=DIRECTION('ref_axis',(1.,0.,0.));
#886=DIRECTION('center_axis',(0.,0.,1.));
#887=DIRECTION('ref_axis',(0.707106781186522,0.707106781186573,0.));
#888=DIRECTION('center_axis',(0.,0.,1.));
#889=DIRECTION('ref_axis',(0.707106781186522,0.707106781186573,0.));
#890=DIRECTION('',(0.,0.,1.));
#891=DIRECTION('',(0.,0.,-1.));
#892=DIRECTION('center_axis',(-1.,0.,0.));
#893=DIRECTION('ref_axis',(0.,-1.,0.));
#894=DIRECTION('',(0.,1.,0.));
#895=DIRECTION('',(0.,0.,-1.));
#896=DIRECTION('center_axis',(0.,0.,1.));
#897=DIRECTION('ref_axis',(0.707106781186529,-0.707106781186566,0.));
#898=DIRECTION('center_axis',(0.,0.,1.));
#899=DIRECTION('ref_axis',(0.707106781186529,-0.707106781186566,0.));
#900=DIRECTION('',(0.,0.,1.));
#901=DIRECTION('center_axis',(3.53157996423078E-33,1.,0.));
#902=DIRECTION('ref_axis',(-1.,3.53157996423078E-33,0.));
#903=DIRECTION('',(1.,-3.53157996423078E-33,0.));
#904=DIRECTION('',(0.,0.,-1.));
#905=DIRECTION('center_axis',(0.,0.,1.));
#906=DIRECTION('ref_axis',(-0.707106781186553,-0.707106781186543,0.));
#907=DIRECTION('center_axis',(0.,0.,1.));
#908=DIRECTION('ref_axis',(-0.707106781186553,-0.707106781186543,0.));
#909=DIRECTION('',(0.,0.,1.));
#910=DIRECTION('center_axis',(1.,-4.62223186652937E-34,0.));
#911=DIRECTION('ref_axis',(4.62223186652937E-34,1.,0.));
#912=DIRECTION('',(-4.62223186652937E-34,-1.,0.));
#913=DIRECTION('',(0.,0.,-1.));
#914=DIRECTION('center_axis',(0.,0.,1.));
#915=DIRECTION('ref_axis',(-0.707106781186543,0.707106781186553,0.));
#916=DIRECTION('center_axis',(0.,0.,1.));
#917=DIRECTION('ref_axis',(-0.707106781186543,0.707106781186553,0.));
#918=DIRECTION('',(0.,0.,1.));
#919=DIRECTION('center_axis',(0.,0.,1.));
#920=DIRECTION('ref_axis',(1.,0.,0.));
#921=DIRECTION('',(-1.,0.,0.));
#922=DIRECTION('center_axis',(0.,0.,-1.));
#923=DIRECTION('ref_axis',(-1.,0.,0.));
#924=DIRECTION('center_axis',(0.,0.,-1.));
#925=DIRECTION('ref_axis',(-1.,0.,0.));
#926=DIRECTION('center_axis',(0.,0.,-1.));
#927=DIRECTION('ref_axis',(-1.,0.,0.));
#928=DIRECTION('center_axis',(0.,0.,-1.));
#929=DIRECTION('ref_axis',(-1.,0.,0.));
#930=DIRECTION('center_axis',(0.,0.,1.));
#931=DIRECTION('ref_axis',(1.,0.,0.));
#932=DIRECTION('center_axis',(0.,0.,1.));
#933=DIRECTION('ref_axis',(1.,0.,0.));
#934=DIRECTION('center_axis',(0.,0.,1.));
#935=DIRECTION('ref_axis',(1.,0.,0.));
#936=DIRECTION('center_axis',(0.,0.,1.));
#937=DIRECTION('ref_axis',(1.,0.,0.));
#938=DIRECTION('center_axis',(0.,0.,1.));
#939=DIRECTION('ref_axis',(-0.707106781186547,-0.707106781186547,0.));
#940=DIRECTION('',(0.,0.,-1.));
#941=DIRECTION('center_axis',(0.,0.,1.));
#942=DIRECTION('ref_axis',(-0.707106781186547,-0.707106781186547,0.));
#943=DIRECTION('',(0.,0.,1.));
#944=DIRECTION('center_axis',(0.,-1.,0.));
#945=DIRECTION('ref_axis',(1.,0.,0.));
#946=DIRECTION('',(-1.,0.,0.));
#947=DIRECTION('',(0.,0.,-1.));
#948=DIRECTION('center_axis',(0.,0.,1.));
#949=DIRECTION('ref_axis',(1.,0.,0.));
#950=DIRECTION('',(0.,1.,0.));
#951=DIRECTION('center_axis',(0.,0.,1.));
#952=DIRECTION('ref_axis',(-0.707106781186547,0.707106781186547,0.));
#953=DIRECTION('',(1.,0.,0.));
#954=DIRECTION('center_axis',(0.,0.,1.));
#955=DIRECTION('ref_axis',(0.707106781186547,0.707106781186547,0.));
#956=DIRECTION('',(0.,-1.,0.));
#957=DIRECTION('center_axis',(0.,0.,1.));
#958=DIRECTION('ref_axis',(0.707106781186547,-0.707106781186547,0.));
#959=DIRECTION('center_axis',(0.,0.,1.));
#960=DIRECTION('ref_axis',(-0.707106781186547,0.707106781186547,0.));
#961=DIRECTION('',(0.,0.,-1.));
#962=DIRECTION('',(0.,0.,1.));
#963=DIRECTION('center_axis',(0.,1.,0.));
#964=DIRECTION('ref_axis',(-1.,0.,0.));
#965=DIRECTION('',(0.,0.,1.));
#966=DIRECTION('center_axis',(0.,0.,1.));
#967=DIRECTION('ref_axis',(0.707106781186547,0.707106781186547,0.));
#968=DIRECTION('',(0.,0.,-1.));
#969=DIRECTION('center_axis',(0.,0.,1.));
#970=DIRECTION('ref_axis',(0.707106781186547,-0.707106781186547,0.));
#971=DIRECTION('',(0.,0.,1.));
#972=DIRECTION('center_axis',(0.,0.,1.));
#973=DIRECTION('ref_axis',(-1.,0.,0.));
#974=DIRECTION('center_axis',(0.,0.,1.));
#975=DIRECTION('ref_axis',(-1.,0.,0.));
#976=DIRECTION('',(0.,0.,1.));
#977=DIRECTION('center_axis',(0.,0.,-1.));
#978=DIRECTION('ref_axis',(-1.,0.,0.));
#979=DIRECTION('center_axis',(0.,0.,1.));
#980=DIRECTION('ref_axis',(-1.,0.,0.));
#981=DIRECTION('center_axis',(0.,0.,1.));
#982=DIRECTION('ref_axis',(-1.,0.,0.));
#983=DIRECTION('center_axis',(0.,0.,1.));
#984=DIRECTION('ref_axis',(-1.,0.,0.));
#985=DIRECTION('',(0.,0.,1.));
#986=DIRECTION('center_axis',(0.,0.,-1.));
#987=DIRECTION('ref_axis',(-1.,0.,0.));
#988=DIRECTION('center_axis',(0.,0.,1.));
#989=DIRECTION('ref_axis',(-1.,0.,0.));
#990=DIRECTION('center_axis',(0.,0.,1.));
#991=DIRECTION('ref_axis',(-1.,0.,0.));
#992=DIRECTION('center_axis',(0.,0.,1.));
#993=DIRECTION('ref_axis',(-1.,0.,0.));
#994=DIRECTION('',(0.,0.,1.));
#995=DIRECTION('center_axis',(0.,0.,-1.));
#996=DIRECTION('ref_axis',(-1.,0.,0.));
#997=DIRECTION('center_axis',(0.,0.,1.));
#998=DIRECTION('ref_axis',(-1.,0.,0.));
#999=DIRECTION('center_axis',(0.,0.,1.));
#1000=DIRECTION('ref_axis',(-1.,0.,0.));
#1001=DIRECTION('center_axis',(0.,0.,1.));
#1002=DIRECTION('ref_axis',(-1.,0.,0.));
#1003=DIRECTION('',(0.,0.,1.));
#1004=DIRECTION('center_axis',(0.,0.,-1.));
#1005=DIRECTION('ref_axis',(-1.,0.,0.));
#1006=DIRECTION('center_axis',(0.,0.,1.));
#1007=DIRECTION('ref_axis',(-1.,0.,0.));
#1008=DIRECTION('center_axis',(0.,0.,1.));
#1009=DIRECTION('ref_axis',(-1.,0.,0.));
#1010=DIRECTION('center_axis',(0.,0.,1.));
#1011=DIRECTION('ref_axis',(-1.,0.,0.));
#1012=DIRECTION('',(0.,0.,-1.));
#1013=DIRECTION('center_axis',(0.,0.,1.));
#1014=DIRECTION('ref_axis',(-1.,0.,0.));
#1015=DIRECTION('center_axis',(0.,0.,1.));
#1016=DIRECTION('ref_axis',(-1.,0.,0.));
#1017=DIRECTION('center_axis',(0.,0.,1.));
#1018=DIRECTION('ref_axis',(-1.,0.,0.));
#1019=DIRECTION('',(0.,0.,-1.));
#1020=DIRECTION('center_axis',(0.,0.,1.));
#1021=DIRECTION('ref_axis',(-1.,0.,0.));
#1022=DIRECTION('center_axis',(0.,0.,1.));
#1023=DIRECTION('ref_axis',(-1.,0.,0.));
#1024=DIRECTION('center_axis',(0.,0.,1.));
#1025=DIRECTION('ref_axis',(-1.,0.,0.));
#1026=DIRECTION('',(0.,0.,-1.));
#1027=DIRECTION('center_axis',(0.,0.,1.));
#1028=DIRECTION('ref_axis',(-1.,0.,0.));
#1029=DIRECTION('center_axis',(0.,0.,1.));
#1030=DIRECTION('ref_axis',(-1.,0.,0.));
#1031=DIRECTION('center_axis',(0.,0.,1.));
#1032=DIRECTION('ref_axis',(-1.,0.,0.));
#1033=DIRECTION('',(0.,0.,-1.));
#1034=DIRECTION('center_axis',(0.,0.,1.));
#1035=DIRECTION('ref_axis',(-1.,0.,0.));
#1036=DIRECTION('center_axis',(0.,-1.,0.));
#1037=DIRECTION('ref_axis',(1.,0.,0.));
#1038=DIRECTION('center_axis',(-1.,0.,0.));
#1039=DIRECTION('ref_axis',(0.,-1.,0.));
#1040=DIRECTION('center_axis',(1.,0.,0.));
#1041=DIRECTION('ref_axis',(0.,1.,0.));
#1042=CARTESIAN_POINT('',(0.,0.,0.));
#1043=CARTESIAN_POINT('Origin',(389.6,179.,21.25));
#1044=CARTESIAN_POINT('',(387.1,179.,21.5));
#1045=CARTESIAN_POINT('Origin',(389.6,179.,21.5));
#1046=CARTESIAN_POINT('',(387.6,179.,21.));
#1047=CARTESIAN_POINT('',(387.35,179.,21.25));
#1048=CARTESIAN_POINT('Origin',(389.6,179.,21.));
#1049=CARTESIAN_POINT('Origin',(192.55,85.,21.5));
#1050=CARTESIAN_POINT('',(-5.,-15.,21.5));
#1051=CARTESIAN_POINT('',(-10.,-10.,21.5));
#1052=CARTESIAN_POINT('Origin',(-5.,-10.,21.5));
#1053=CARTESIAN_POINT('',(390.1,-15.,21.5));
#1054=CARTESIAN_POINT('',(395.1,-15.,21.5));
#1055=CARTESIAN_POINT('',(395.1,-10.,21.5));
#1056=CARTESIAN_POINT('Origin',(390.1,-10.,21.5));
#1057=CARTESIAN_POINT('',(395.1,180.,21.5));
#1058=CARTESIAN_POINT('',(395.1,185.,21.5));
#1059=CARTESIAN_POINT('',(390.1,185.,21.5));
#1060=CARTESIAN_POINT('Origin',(390.1,180.,21.5));
#1061=CARTESIAN_POINT('',(-5.,185.,21.5));
#1062=CARTESIAN_POINT('',(-10.,185.,21.5));
#1063=CARTESIAN_POINT('',(-10.,180.,21.5));
#1064=CARTESIAN_POINT('Origin',(-5.,180.,21.5));
#1065=CARTESIAN_POINT('',(-10.,-15.,21.5));
#1066=CARTESIAN_POINT('',(387.1,-9.,21.5));
#1067=CARTESIAN_POINT('Origin',(389.6,-9.,21.5));
#1068=CARTESIAN_POINT('',(-6.99999999999999,-9.,21.5));
#1069=CARTESIAN_POINT('Origin',(-4.49999999999999,-9.,21.5));
#1070=CARTESIAN_POINT('',(2.31111593326477E-34,0.500000000000007,21.5));
#1071=CARTESIAN_POINT('',(6.9102366404614E-32,149.5,21.5));
#1072=CARTESIAN_POINT('',(6.93334779979405E-32,150.,21.5));
#1073=CARTESIAN_POINT('',(0.499999999999972,150.,21.5));
#1074=CARTESIAN_POINT('Origin',(0.5,149.5,21.5));
#1075=CARTESIAN_POINT('',(384.65,150.,21.5));
#1076=CARTESIAN_POINT('',(385.15,150.,21.5));
#1077=CARTESIAN_POINT('',(385.15,149.5,21.5));
#1078=CARTESIAN_POINT('Origin',(384.65,149.5,21.5));
#1079=CARTESIAN_POINT('',(385.15,0.499999999999998,21.5));
#1080=CARTESIAN_POINT('',(385.15,-1.36018802322349E-30,21.5));
#1081=CARTESIAN_POINT('',(384.65,-1.35842223324137E-30,21.5));
#1082=CARTESIAN_POINT('Origin',(384.65,0.499999999999998,21.5));
#1083=CARTESIAN_POINT('',(0.500000000000007,-1.76578998211542E-33,21.5));
#1084=CARTESIAN_POINT('',(0.,0.,21.5));
#1085=CARTESIAN_POINT('Origin',(0.500000000000007,0.5,21.5));
#1086=CARTESIAN_POINT('',(-6.99999999999998,179.,21.5));
#1087=CARTESIAN_POINT('Origin',(-4.49999999999999,179.,21.5));
#1088=CARTESIAN_POINT('Origin',(389.6,179.,21.5));
#1089=CARTESIAN_POINT('',(387.6,179.,16.));
#1090=CARTESIAN_POINT('',(387.6,179.,21.5));
#1091=CARTESIAN_POINT('Origin',(389.6,179.,16.));
#1092=CARTESIAN_POINT('Origin',(389.6,-9.,21.25));
#1093=CARTESIAN_POINT('',(387.6,-9.,21.));
#1094=CARTESIAN_POINT('',(387.35,-9.,21.25));
#1095=CARTESIAN_POINT('Origin',(389.6,-9.,21.));
#1096=CARTESIAN_POINT('Origin',(389.6,-9.,21.5));
#1097=CARTESIAN_POINT('',(387.6,-9.,16.));
#1098=CARTESIAN_POINT('',(387.6,-9.,21.5));
#1099=CARTESIAN_POINT('Origin',(389.6,-9.,16.));
#1100=CARTESIAN_POINT('Origin',(-4.49999999999999,179.,21.25));
#1101=CARTESIAN_POINT('',(-6.49999999999998,179.,21.));
#1102=CARTESIAN_POINT('',(-6.74999999999998,179.,21.25));
#1103=CARTESIAN_POINT('Origin',(-4.49999999999999,179.,21.));
#1104=CARTESIAN_POINT('Origin',(-4.49999999999999,179.,21.5));
#1105=CARTESIAN_POINT('',(-6.49999999999998,179.,16.));
#1106=CARTESIAN_POINT('',(-6.49999999999998,179.,21.5));
#1107=CARTESIAN_POINT('Origin',(-4.49999999999999,179.,16.));
#1108=CARTESIAN_POINT('Origin',(-4.49999999999999,-9.,21.25));
#1109=CARTESIAN_POINT('',(-6.49999999999999,-9.,21.));
#1110=CARTESIAN_POINT('',(-6.74999999999999,-9.,21.25));
#1111=CARTESIAN_POINT('Origin',(-4.49999999999999,-9.,21.));
#1112=CARTESIAN_POINT('Origin',(-4.49999999999999,-9.,21.5));
#1113=CARTESIAN_POINT('',(-6.49999999999999,-9.,16.));
#1114=CARTESIAN_POINT('',(-6.49999999999999,-9.,21.5));
#1115=CARTESIAN_POINT('Origin',(-4.49999999999999,-9.,16.));
#1116=CARTESIAN_POINT('Origin',(384.65,149.5,0.));
#1117=CARTESIAN_POINT('',(385.15,149.5,2.));
#1118=CARTESIAN_POINT('',(384.65,150.,2.));
#1119=CARTESIAN_POINT('Origin',(384.65,149.5,2.));
#1120=CARTESIAN_POINT('',(385.15,149.5,0.));
#1121=CARTESIAN_POINT('',(384.65,150.,0.));
#1122=CARTESIAN_POINT('Origin',(385.15,150.,0.));
#1123=CARTESIAN_POINT('',(385.15,0.499999999999998,2.));
#1124=CARTESIAN_POINT('',(385.15,-1.36018802322349E-30,2.));
#1125=CARTESIAN_POINT('',(385.15,0.499999999999998,0.));
#1126=CARTESIAN_POINT('Origin',(384.65,0.499999999999998,0.));
#1127=CARTESIAN_POINT('',(384.65,-1.35842223324137E-30,2.));
#1128=CARTESIAN_POINT('Origin',(384.65,0.499999999999998,2.));
#1129=CARTESIAN_POINT('',(384.65,0.,0.));
#1130=CARTESIAN_POINT('Origin',(385.15,-1.36018802322349E-30,0.));
#1131=CARTESIAN_POINT('',(0.500000000000007,-1.76578998211542E-33,2.));
#1132=CARTESIAN_POINT('',(0.,0.,2.));
#1133=CARTESIAN_POINT('',(0.500000000000007,0.,0.));
#1134=CARTESIAN_POINT('Origin',(0.500000000000007,0.5,0.));
#1135=CARTESIAN_POINT('',(2.31111593326477E-34,0.500000000000007,2.));
#1136=CARTESIAN_POINT('Origin',(0.500000000000007,0.5,2.));
#1137=CARTESIAN_POINT('',(0.,0.5,0.));
#1138=CARTESIAN_POINT('Origin',(0.,0.,0.));
#1139=CARTESIAN_POINT('',(6.9102366404614E-32,149.5,2.));
#1140=CARTESIAN_POINT('',(6.93334779979405E-32,150.,2.));
#1141=CARTESIAN_POINT('',(0.,149.5,0.));
#1142=CARTESIAN_POINT('Origin',(0.5,149.5,0.));
#1143=CARTESIAN_POINT('',(0.499999999999972,150.,2.));
#1144=CARTESIAN_POINT('Origin',(0.5,149.5,2.));
#1145=CARTESIAN_POINT('',(0.5,150.,0.));
#1146=CARTESIAN_POINT('Origin',(192.575,75.,2.));
#1147=CARTESIAN_POINT('',(385.15,150.,2.));
#1148=CARTESIAN_POINT('',(378.736889082063,141.193325836759,2.));
#1149=CARTESIAN_POINT('Origin',(375.736889082063,141.193325836759,2.));
#1150=CARTESIAN_POINT('',(12.0647208647864,141.73144043494,2.));
#1151=CARTESIAN_POINT('Origin',(9.06472086478643,141.73144043494,2.));
#1152=CARTESIAN_POINT('',(379.430520333129,8.22142770239509,2.));
#1153=CARTESIAN_POINT('Origin',(376.430520333129,8.22142770239509,2.));
#1154=CARTESIAN_POINT('',(12.2980721171634,8.84875025671731,2.));
#1155=CARTESIAN_POINT('Origin',(9.29807211716344,8.84875025671731,2.));
#1156=CARTESIAN_POINT('Origin',(-4.49999999999999,179.,16.));
#1157=CARTESIAN_POINT('Origin',(389.6,179.,16.));
#1158=CARTESIAN_POINT('Origin',(-4.49999999999999,-9.,16.));
#1159=CARTESIAN_POINT('Origin',(389.6,-9.,16.));
#1160=CARTESIAN_POINT('Origin',(-5.,-10.,0.));
#1161=CARTESIAN_POINT('',(-10.,-10.,0.));
#1162=CARTESIAN_POINT('',(-10.,-10.,0.));
#1163=CARTESIAN_POINT('',(-5.,-15.,0.));
#1164=CARTESIAN_POINT('Origin',(-5.,-10.,0.));
#1165=CARTESIAN_POINT('',(-5.,-15.,0.));
#1166=CARTESIAN_POINT('Origin',(-10.,-15.,0.));
#1167=CARTESIAN_POINT('',(390.1,-15.,0.));
#1168=CARTESIAN_POINT('',(395.1,-15.,0.));
#1169=CARTESIAN_POINT('',(390.1,-15.,0.));
#1170=CARTESIAN_POINT('Origin',(192.575,75.,0.));
#1171=CARTESIAN_POINT('',(-10.,180.,0.));
#1172=CARTESIAN_POINT('',(-10.,-15.,0.));
#1173=CARTESIAN_POINT('',(-5.,185.,0.));
#1174=CARTESIAN_POINT('Origin',(-5.,180.,0.));
#1175=CARTESIAN_POINT('',(390.1,185.,0.));
#1176=CARTESIAN_POINT('',(-10.,185.,0.));
#1177=CARTESIAN_POINT('',(395.1,180.,0.));
#1178=CARTESIAN_POINT('Origin',(390.1,180.,0.));
#1179=CARTESIAN_POINT('',(395.1,-10.,0.));
#1180=CARTESIAN_POINT('',(395.1,185.,0.));
#1181=CARTESIAN_POINT('Origin',(390.1,-10.,0.));
#1182=CARTESIAN_POINT('Origin',(-5.,180.,0.));
#1183=CARTESIAN_POINT('',(-5.,185.,0.));
#1184=CARTESIAN_POINT('',(-10.,180.,0.));
#1185=CARTESIAN_POINT('Origin',(395.1,185.,0.));
#1186=CARTESIAN_POINT('',(390.1,185.,0.));
#1187=CARTESIAN_POINT('Origin',(390.1,180.,0.));
#1188=CARTESIAN_POINT('',(395.1,180.,0.));
#1189=CARTESIAN_POINT('Origin',(390.1,-10.,0.));
#1190=CARTESIAN_POINT('',(395.1,-10.,0.));
#1191=CARTESIAN_POINT('Origin',(9.26,8.93000000000001,2.));
#1192=CARTESIAN_POINT('',(10.847462,8.93000000000001,2.));
#1193=CARTESIAN_POINT('Origin',(9.26,8.93000000000001,2.));
#1194=CARTESIAN_POINT('',(10.847462,8.93000000000001,8.5));
#1195=CARTESIAN_POINT('',(10.847462,8.93000000000001,2.));
#1196=CARTESIAN_POINT('Origin',(9.26,8.93000000000001,8.5));
#1197=CARTESIAN_POINT('Origin',(9.26,8.93000000000001,2.));
#1198=CARTESIAN_POINT('Origin',(376.4,8.26999999999998,2.));
#1199=CARTESIAN_POINT('',(377.987462,8.26999999999998,2.));
#1200=CARTESIAN_POINT('Origin',(376.4,8.26999999999998,2.));
#1201=CARTESIAN_POINT('',(377.987462,8.26999999999998,8.5));
#1202=CARTESIAN_POINT('',(377.987462,8.26999999999998,2.));
#1203=CARTESIAN_POINT('Origin',(376.4,8.26999999999998,8.5));
#1204=CARTESIAN_POINT('Origin',(376.4,8.26999999999998,2.));
#1205=CARTESIAN_POINT('Origin',(9.04999999999999,141.8,2.));
#1206=CARTESIAN_POINT('',(10.637462,141.8,2.));
#1207=CARTESIAN_POINT('Origin',(9.04999999999999,141.8,2.));
#1208=CARTESIAN_POINT('',(10.637462,141.8,8.5));
#1209=CARTESIAN_POINT('',(10.637462,141.8,2.));
#1210=CARTESIAN_POINT('Origin',(9.04999999999999,141.8,8.5));
#1211=CARTESIAN_POINT('Origin',(9.04999999999999,141.8,2.));
#1212=CARTESIAN_POINT('Origin',(375.79,141.22,2.));
#1213=CARTESIAN_POINT('',(377.377462,141.22,2.));
#1214=CARTESIAN_POINT('Origin',(375.79,141.22,2.));
#1215=CARTESIAN_POINT('',(377.377462,141.22,8.5));
#1216=CARTESIAN_POINT('',(377.377462,141.22,2.));
#1217=CARTESIAN_POINT('Origin',(375.79,141.22,8.5));
#1218=CARTESIAN_POINT('Origin',(375.79,141.22,2.));
#1219=CARTESIAN_POINT('Origin',(9.29807211716344,8.84875025671731,2.));
#1220=CARTESIAN_POINT('',(12.2980721171634,8.84875025671731,8.5));
#1221=CARTESIAN_POINT('Origin',(9.29807211716344,8.84875025671731,8.5));
#1222=CARTESIAN_POINT('',(12.2980721171634,8.84875025671731,2.));
#1223=CARTESIAN_POINT('Origin',(9.29807211716344,8.84875025671731,8.5));
#1224=CARTESIAN_POINT('Origin',(376.430520333129,8.22142770239509,2.));
#1225=CARTESIAN_POINT('',(379.430520333129,8.22142770239509,8.5));
#1226=CARTESIAN_POINT('Origin',(376.430520333129,8.22142770239509,8.5));
#1227=CARTESIAN_POINT('',(379.430520333129,8.22142770239509,2.));
#1228=CARTESIAN_POINT('Origin',(376.430520333129,8.22142770239509,8.5));
#1229=CARTESIAN_POINT('Origin',(9.06472086478643,141.73144043494,2.));
#1230=CARTESIAN_POINT('',(12.0647208647864,141.73144043494,8.5));
#1231=CARTESIAN_POINT('Origin',(9.06472086478643,141.73144043494,8.5));
#1232=CARTESIAN_POINT('',(12.0647208647864,141.73144043494,2.));
#1233=CARTESIAN_POINT('Origin',(9.06472086478643,141.73144043494,8.5));
#1234=CARTESIAN_POINT('Origin',(375.736889082063,141.193325836759,2.));
#1235=CARTESIAN_POINT('',(378.736889082063,141.193325836759,8.5));
#1236=CARTESIAN_POINT('Origin',(375.736889082063,141.193325836759,8.5));
#1237=CARTESIAN_POINT('',(378.736889082063,141.193325836759,2.));
#1238=CARTESIAN_POINT('Origin',(375.736889082063,141.193325836759,8.5));
#1239=CARTESIAN_POINT('Origin',(0.,150.,0.));
#1240=CARTESIAN_POINT('Origin',(-10.,185.,0.));
#1241=CARTESIAN_POINT('Origin',(395.1,-15.,0.));
#1242=UNCERTAINTY_MEASURE_WITH_UNIT(LENGTH_MEASURE(0.01),#1246,
'DISTANCE_ACCURACY_VALUE',
'Maximum model space distance between geometric entities at asserted c
onnectivities');
#1243=UNCERTAINTY_MEASURE_WITH_UNIT(LENGTH_MEASURE(0.01),#1246,
'DISTANCE_ACCURACY_VALUE',
'Maximum model space distance between geometric entities at asserted c
onnectivities');
#1244=(
GEOMETRIC_REPRESENTATION_CONTEXT(3)
GLOBAL_UNCERTAINTY_ASSIGNED_CONTEXT((#1242))
GLOBAL_UNIT_ASSIGNED_CONTEXT((#1246,#1248,#1249))
REPRESENTATION_CONTEXT('','3D')
);
#1245=(
GEOMETRIC_REPRESENTATION_CONTEXT(3)
GLOBAL_UNCERTAINTY_ASSIGNED_CONTEXT((#1243))
GLOBAL_UNIT_ASSIGNED_CONTEXT((#1246,#1248,#1249))
REPRESENTATION_CONTEXT('','3D')
);
#1246=(
LENGTH_UNIT()
NAMED_UNIT(*)
SI_UNIT(.MILLI.,.METRE.)
);
#1247=(
LENGTH_UNIT()
NAMED_UNIT(*)
SI_UNIT($,.METRE.)
);
#1248=(
NAMED_UNIT(*)
PLANE_ANGLE_UNIT()
SI_UNIT($,.RADIAN.)
);
#1249=(
NAMED_UNIT(*)
SI_UNIT($,.STERADIAN.)
SOLID_ANGLE_UNIT()
);
#1250=SHAPE_DEFINITION_REPRESENTATION(#1251,#1252);
#1251=PRODUCT_DEFINITION_SHAPE('',$,#1254);
#1252=SHAPE_REPRESENTATION('',(#718),#1244);
#1253=PRODUCT_DEFINITION_CONTEXT('part definition',#1258,'design');
#1254=PRODUCT_DEFINITION('2026-06-05-11-31-41-881',
'KEYBOARD BOTTOM CASE',#1255,#1253);
#1255=PRODUCT_DEFINITION_FORMATION('',$,#1260);
#1256=PRODUCT_RELATED_PRODUCT_CATEGORY('KEYBOARD BOTTOM CASE',
'KEYBOARD BOTTOM CASE',(#1260));
#1257=APPLICATION_PROTOCOL_DEFINITION('international standard',
'automotive_design',2009,#1258);
#1258=APPLICATION_CONTEXT(
'Core Data for Automotive Mechanical Design Process');
#1259=PRODUCT_CONTEXT('part definition',#1258,'mechanical');
#1260=PRODUCT('2026-06-05-11-31-41-881','KEYBOARD BOTTOM CASE',$,(#1259));
#1261=PRESENTATION_STYLE_ASSIGNMENT((#1263));
#1262=PRESENTATION_STYLE_ASSIGNMENT((#1264));
#1263=SURFACE_STYLE_USAGE(.BOTH.,#1265);
#1264=SURFACE_STYLE_USAGE(.BOTH.,#1266);
#1265=SURFACE_SIDE_STYLE('',(#1267));
#1266=SURFACE_SIDE_STYLE('',(#1268));
#1267=SURFACE_STYLE_FILL_AREA(#1269);
#1268=SURFACE_STYLE_FILL_AREA(#1270);
#1269=FILL_AREA_STYLE('Steel - Satin',(#1271));
#1270=FILL_AREA_STYLE('Powder Coat - Rough (Black)',(#1272));
#1271=FILL_AREA_STYLE_COLOUR('Steel - Satin',#1273);
#1272=FILL_AREA_STYLE_COLOUR('Powder Coat - Rough (Black)',#1274);
#1273=COLOUR_RGB('Steel - Satin',0.627450980392157,0.627450980392157,0.627450980392157);
#1274=COLOUR_RGB('Powder Coat - Rough (Black)',0.0980392156862745,0.0980392156862745,
0.0980392156862745);
ENDSEC;
END-ISO-10303-21;
